{"title":"True Detective S02E07 720p mHD HDTV EN-SUB x264-[MULVAcoded]","uid":12191876,"size":258556151,"categoryP":"video","categoryS":"hd___tv_shows","magnet":"?xt=urn:btih:3d479bc3ebcf8f3590272bb04b1670a8318485c0&amp;dn=True+Detective+S02E07+720p+mHD+HDTV+EN-SUB+x264-%5BMULVAcoded%5D&amp;tr=udp%3A%2F%2Ftracker.openbittorrent.com%3A80&amp;tr=udp%3A%2F%2Fopen.demonii.com%3A1337&amp;tr=udp%3A%2F%2Ftracker.coppersurfer.tk%3A6969&amp;tr=udp%3A%2F%2Fexodus.desync.com%3A6969","seeders":4,"leechers":0,"uploader":"Mulva1989","files":1,"time":1438672009,"description":"True Detective S02E07 720p mHD HDTV EN-SUB x264-[MULVAcoded]\n\nPrecautionary measures are needed to be taken by Ray, Ani and Paul to make sure that they are not detected as they attempt to put the mystery's clues together. \n\nScreens @ &lt;a href=&quot;\nhttps://yuq.me/users/50/321/457RpiZBqx.jpg&quot; rel=&quot;nofollow&quot; target=&quot;_NEW&quot;&gt;\nhttps://yuq.me/users/50/321/457RpiZBqx.jpg&lt;/a&gt; &lt;a href=&quot;\nhttps://yuq.me/users/50/321/2h6DtxB7Uf.jpg&quot; rel=&quot;nofollow&quot; target=&quot;_NEW&quot;&gt;\nhttps://yuq.me/users/50/321/2h6DtxB7Uf.jpg&lt;/a&gt;\n\nFormat : MPEG-4\nFormat profile : Base Media\nCodec ID : isom\nFile size : 247 MiB\nDuration : 1h 4mn\nOverall bit rate mode : Variable\nOverall bit rate : 536 Kbps\nEncoded date : UTC 2015-08-04 04:43:41\nTagged date : UTC 2015-08-04 04:43:41\n\nVideo\nID : 2\nFormat : AVC\nFormat/Info : Advanced Video Codec\nFormat profile : &lt;a class=&quot;__cf_email__&quot; href=&quot;/cdn-cgi/l/email-protection&quot; data-cfemail=&quot;5018393738101c657e60&quot;&gt;[email&amp;#160;protected]&lt;/a&gt;&lt;script data-cfhash='f9e31' type=&quot;text/javascript&quot;&gt;\n/* &lt;![CDATA[ */!function(){try{var t=&quot;currentScript&quot;in document?document.currentScript:function(){for(var t=document.getElementsByTagName(&quot;script&quot;),e=t.length;e--;)if(t[e].getAttribute(&quot;data-cfhash&quot;))return t[e]}();if(t&amp;&amp;t.previousSibling){var e,r,n,i,c=t.previousSibling,a=c.getAttribute(&quot;data-cfemail&quot;);if(a){for(e=&quot;&quot;,r=parseInt(a.substr(0,2),16),n=2;a.length-n;n+=2)i=parseInt(a.substr(n,2),16)^r,e+=String.fromCharCode(i);e=document.createTextNode(e),c.parentNode.replaceChild(e,c)}t.parentNode.removeChild(t);}}catch(u){}}()/* ]]&gt; */&lt;/script&gt;\nFormat settings, CABAC : Yes\nFormat settings, ReFrames : 16 frames\nCodec ID : avc1\nCodec ID/Info : Advanced Video Coding\nDuration : 1h 4mn\nBit rate : 436 Kbps\nMaximum bit rate : 13.7 Mbps\nWidth : 1 280 pixels\nHeight : 720 pixels\nDisplay aspect ratio : 16:9\nFrame rate mode : Variable\nFrame rate : 23.976 fps\nMinimum frame rate : 23.974 fps\nMaximum frame rate : 23.981 fps\nColor space : YUV\nChroma subsampling : 4:2:0\nBit depth : 8 bits\nScan type : Progressive\nBits/(Pixel*Frame) : 0.020\nStream size : 200 MiB (81%)\nWriting library : x264 core 130 r2273 b3065e6\nEncoding settings : cabac=1 / ref=16 / deblock=1:0:0 / analyse=0x3:0x113 / me=umh / subme=8 / psy=1 / psy_rd=1.00:0.00 / mixed_ref=1 / me_range=16 / chroma_me=1 / trellis=1 / 8x8dct=1 / cqm=0 / deadzone=21,11 / fast_pskip=1 / chroma_qp_offset=-2 / threads=6 / lookahead_threads=3 / sliced_threads=0 / nr=0 / decimate=1 / interlaced=0 / bluray_compat=0 / constrained_intra=0 / bframes=16 / b_pyramid=2 / b_adapt=2 / b_bias=0 / direct=3 / weightb=1 / open_gop=0 / weightp=2 / keyint=240 / keyint_min=24 / scenecut=40 / intra_refresh=0 / rc_lookahead=50 / rc=crf / mbtree=1 / crf=27.0 / qcomp=0.60 / qpmin=0 / qpmax=69 / qpstep=4 / ip_ratio=1.40 / aq=1:1.00\nEncoded date : UTC 2015-08-04 00:41:43\nTagged date : UTC 2015-08-04 04:43:51\nColor primaries : BT.709\nTransfer characteristics : BT.709\nMatrix coefficients : BT.709\nColor range : Limited\n\nAudio\nID : 1\nFormat : AAC\nFormat/Info : Advanced Audio Codec\nFormat profile : LC\nCodec ID : 40\nDuration : 1h 4mn\nBit rate mode : Variable\nBit rate : 96.0 Kbps\nMaximum bit rate : 114 Kbps\nChannel(s) : 2 channels\nChannel positions : Front: L R\nSampling rate : 48.0 KHz\nCompression mode : Lossy\nStream size : 44.1 MiB (18%)\nEncoded date : UTC 2015-08-04 04:43:41\nTagged date : UTC 2015-08-04 04:43:51\n\nText\nID : 3\nFormat : Timed Text\nMuxing mode : sbtl\nCodec ID : tx3g\nDuration : 1h 3mn\nBit rate mode : Variable\nBit rate : 67 bps\nStream size : 31.3 KiB (0%)\nTitle : 1True.Detective.S02E07.720p.mHD.HDTV.EN-SUB.x264-[MULVAcoded].srt:hdlr=sbtl:lang=en:group=2:layer=-1 - Imported with GPAC 0.5.0-rev\nLanguage : English\nEncoded date : UTC 2015-08-04 04:43:51\nTagged date : UTC 2015-08-04 04:43:51","torrent":{"xt":"urn:btih:3d479bc3ebcf8f3590272bb04b1670a8318485c0","amp;dn":"True+Detective+S02E07+720p+mHD+HDTV+EN-SUB+x264-%5BMULVAcoded%5D","amp;tr":["udp%3A%2F%2Ftracker.openbittorrent.com%3A80","udp%3A%2F%2Fopen.demonii.com%3A1337","udp%3A%2F%2Ftracker.coppersurfer.tk%3A6969","udp%3A%2F%2Fexodus.desync.com%3A6969"],"infoHash":"3d479bc3ebcf8f3590272bb04b1670a8318485c0","infoHashBuffer":{"type":"Buffer","data":[61,71,155,195,235,207,143,53,144,39,43,176,75,22,112,168,49,132,133,192]},"announce":[],"urlList":[]}}